<?xml version="1.0" encoding="UTF-8"?>
<!DOCTYPE svg PUBLIC "-//W3C//DTD SVG 1.1//EN" "http://www.w3.org/Graphics/SVG/1.1/DTD/svg11.dtd">
<!-- Creator: CorelDRAW 2020 (64 Bit) -->
<svg xmlns="http://www.w3.org/2000/svg" xml:space="preserve" width="210mm" height="297mm" version="1.1" style="shape-rendering:geometricPrecision; text-rendering:geometricPrecision; image-rendering:optimizeQuality; fill-rule:evenodd; clip-rule:evenodd"
viewBox="0 0 21000 29700"
 xmlns:xlink="http://www.w3.org/1999/xlink"
 xmlns:xodm="http://www.corel.com/coreldraw/odm/2003">
 <defs>
  <style type="text/css">
   <![CDATA[
    .str1 {stroke:white;stroke-width:20;stroke-miterlimit:22.9256;stroke-opacity:0.000000}
    .str0 {stroke:#7E2121;stroke-width:20;stroke-miterlimit:22.9256}
    .str2 {stroke:white;stroke-width:20;stroke-miterlimit:22.9256}
    .fil2 {fill:black}
    .fil3 {fill:#7E2121}
    .fil5 {fill:white}
    .fil0 {fill:white;fill-opacity:0.000000}
    .fil4 {fill:white;fill-opacity:0.000000}
    .fil1 {fill:black}
   ]]>
  </style>
 </defs>
 <g id="Camada_x0020_1">
  <metadata id="CorelCorpID_0Corel-Layer"/>
  <path class="fil0" d="M6724.89 24763.06c164.88,-792.87 -203.13,-1546.52 -838.28,-1719.43 -815.76,-222.08 -1361.27,347.17 -1492.88,990.59 -403.46,1972.43 1959.59,2515.72 2331.16,728.84z"/>
  <path class="fil1" d="M12140.42 25957.97c12.41,-17.65 888.25,-2129.38 1056.52,-2361.04 60.83,397.04 82.72,850.94 119.39,1259.6 129.82,1446.99 2.77,786.3 -135.22,1053.3l893.23 -44.53c-389.49,-6.67 -359.9,-190.98 -402.31,-546.31 -48.61,-407.23 -251.48,-2318.68 -316.43,-2443.53 -211.55,267.53 -986.55,2311.04 -1179.9,2519.73l-600.5 -1266.03c-50.2,-117.59 -495.31,-1139.9 -598.95,-1243.08 -189.85,359.86 -221.29,2647.49 -415.63,2871.71 -130.06,150.05 -235.8,37.23 -280.08,153.19l782.94 -19.03c-158.79,-79.15 -241.93,53.23 -191.59,-459.96l157.19 -1785.86c145.36,192.4 427.33,875.52 551.82,1145.93 98.53,214.02 439.08,1058.61 559.52,1165.91z"/>
  <path class="fil2" d="M6724.89 24763.06c-371.57,1786.88 -2734.62,1243.59 -2331.16,-728.84 131.61,-643.42 677.12,-1212.67 1492.88,-990.59 635.15,172.91 1003.16,926.56 838.28,1719.43zm-2691.09 -246.94c58.73,879.26 661.47,1499.92 1612.7,1443.37 883.8,-52.54 1468.93,-679.21 1431.92,-1620.17 -80.68,-2051.28 -3184.7,-1920.15 -3044.62,176.8z"/>
  <path class="fil2" d="M15856.51 23426.17l482.11 1319.2 -1027.17 -9.37 545.06 -1309.83zm-696.79 2465.78c-95.07,-65.31 -195.3,-41.49 -197.59,-209.53 -1.19,-87.42 59.18,-210.21 94.09,-296.89 257.84,-640.22 -30.75,-507.86 1342.78,-506.61 524.93,1193.51 160.7,843.64 96.08,1031l919.53 -0.17c-63.37,-192.7 -174.31,201.95 -517.65,-611.32l-1017.1 -2408.58 -186.03 417.39c-61.02,144.94 -108.72,261.86 -167.33,396.88 -123.02,283.4 -749.71,1861.87 -864.6,1993.41 -37.83,43.3 -92.93,93.73 -157.54,124.66 -47.4,22.69 -64.96,21.15 -100.57,38.44 -81.67,39.66 -38.53,-21.49 -63.99,50.42l819.92 -19.1z"/>
  <path class="fil2" d="M7480.56 23387.53c56.07,-69.96 57.25,-180.19 110.74,-244.38 112.45,-134.97 783.36,-86.11 981.36,-76.31 -0.79,530.11 -0.19,1060.27 -0.14,1590.39 0.03,270.9 2.81,542.93 1.55,813.6 -2.16,467.3 -251.75,301.04 -304.02,440.09l893.59 -18.97c-193.1,-131.07 -314.23,-17.3 -314.23,-388.06l0 -2442.67 715.73 0c403.25,0 235.52,238 376.47,314.16l-2.26 -503.6c-811.81,112.08 -1644.98,94.18 -2456.69,-7.97l-2.1 523.72z"/>
  <polygon class="fil0" points="15311.45,24736 16338.62,24745.37 15856.51,23426.17 "/>
  <path class="fil3" d="M11761.98 21976.12c46.77,87.87 137.39,53.97 270.51,52.08l5119.38 0.04c168.02,2.86 255.58,49.76 272.57,-79.76 -622.15,0 -5526.52,-49.43 -5662.46,27.64z"/>
  <path class="fil3" d="M4025.43 21976.12c74.96,104.02 1190.45,50.97 1376.94,50.97l3987.58 0.56c131.59,1.62 259.49,37.15 306.69,-51.53 -76.85,-43.57 -5540.06,-62.53 -5671.21,0z"/>
  <polygon class="fil3 str0" points="10617.95,21516.74 10545.07,21575.03 10484.68,21639.58 10440.96,21702.05 10429.5,21723.65 10423.25,21749.42 10420.92,21781.95 10420.92,21831.92 10423.13,21841.42 10380.7,21908.18 10309.1,22002.76 10296.61,22021.5 10284.63,22027.22 10272.14,22024.1 10249.24,22013.17 10227.35,22006.92 10205.49,22002.76 10184.67,22004.84 10170.1,22016.29 10163.85,22025.67 10163.85,22042.32 10172.18,22053.78 10193,22074.6 10235.68,22112.07 10280.45,22151.64 10327.3,22187.04 10360.62,22214.11 10374.15,22225.56 10383.52,22230.77 10401.22,22233.89 10415.8,22231.81 10428.29,22225.56 10439.74,22215.15 10448.07,22199.53 10445.98,22182.88 10437.66,22164.13 10430.37,22147.48 10412.67,22123.53 10396.02,22103.75 10382.48,22087.09 10417.88,22036.07 10506.9,21902.79 10520.44,21900.72 10546.46,21894.46 10577.7,21879.89 10600.6,21863.23 10621.43,21843.45 10643.29,21814.3 10664.11,21787.23 10678.69,21767.45 10693.26,21741.42 10709.92,21713.31 10718.25,21689.37 10722.41,21667.5 10728.69,21693.01 10740.14,21711.74 10752.63,21727.36 10767.2,21742.98 10783.86,21759.64 10800.52,21773.17 10819.26,21788.79 10840.08,21799.2 10860.9,21804.4 10877.57,21806.49 10894.23,21816.9 10917.14,21842.93 10944.2,21880.41 10967.1,21913.72 10987.95,21945.99 11007.73,21976.19 11019.18,21992.85 11020.23,22006.38 11021.79,22015.75 11017.63,22028.25 11000.97,22042.3 10991.6,22056.35 10982.23,22068.84 10970.77,22086.55 10964.53,22100.08 10963.49,22117.77 10969.74,22132.35 10982.23,22141.72 10999.93,22147.97 11018.67,22143.81 11038.45,22135.48 11051.98,22128.19 11072.8,22117.77 11091.54,22102.16 11113.4,22087.58 11140.47,22065.72 11174.83,22041.78 11202.94,22016.79 11234.17,21986.6 11244.58,21968.9 11244.58,21949.12 11233.13,21934.54 11215.43,21926.21 11195.65,21926.21 11177.95,21932.46 11159.21,21941.83 11149.84,21948.08 11138.39,21955.36 11126.94,21957.45 11113.4,21953.28 11104.04,21945.99 11094.67,21930.38 11054.07,21872.08 11010.34,21808.57 10984.31,21777.34 10981.19,21748.19 10982.23,21705.51 10983.27,21676.35 10977.02,21647.2 10964.53,21621.17 10933.3,21574.33 10888.53,21525.39 10846.89,21481.67 10823.98,21457.73 10805.24,21440.02 10792.75,21432.74 10780.25,21428.57 10742.78,21446.27 10713.63,21468.13 10689.68,21488.96 10673.03,21505.61 10661.19,21516.29 10651.16,21527.48 "/>
  <path class="fil4 str1" d="M6724.89 16300.12c164.88,-792.87 -203.13,-1546.52 -838.28,-1719.43 -815.76,-222.08 -1361.27,347.17 -1492.88,990.59 -403.46,1972.43 1959.59,2515.72 2331.16,728.84z"/>
  <path class="fil5 str2" d="M12140.42 17495.03c12.41,-17.65 888.25,-2129.38 1056.52,-2361.04 60.83,397.04 82.72,850.94 119.39,1259.6 129.82,1446.99 2.77,786.3 -135.22,1053.3l893.23 -44.53c-389.49,-6.67 -359.9,-190.98 -402.31,-546.31 -48.61,-407.23 -251.48,-2318.68 -316.43,-2443.53 -211.55,267.53 -986.55,2311.04 -1179.9,2519.73l-600.5 -1266.03c-50.2,-117.59 -495.31,-1139.9 -598.95,-1243.08 -189.85,359.86 -221.29,2647.49 -415.63,2871.71 -130.06,150.05 -235.8,37.23 -280.08,153.19l782.94 -19.03c-158.79,-79.15 -241.93,53.23 -191.59,-459.96l157.19 -1785.86c145.36,192.4 427.33,875.52 551.82,1145.93 98.53,214.02 439.08,1058.61 559.52,1165.91z"/>
  <path class="fil5 str2" d="M6724.89 16300.12c-371.57,1786.88 -2734.62,1243.59 -2331.16,-728.84 131.61,-643.42 677.12,-1212.67 1492.88,-990.59 635.15,172.91 1003.16,926.56 838.28,1719.43zm-2691.09 -246.94c58.73,879.26 661.47,1499.92 1612.7,1443.37 883.8,-52.54 1468.93,-679.21 1431.92,-1620.17 -80.68,-2051.28 -3184.7,-1920.15 -3044.62,176.8z"/>
  <path class="fil5 str2" d="M15856.51 14963.23l482.11 1319.2 -1027.17 -9.37 545.06 -1309.83zm-696.79 2465.78c-95.07,-65.31 -195.3,-41.49 -197.59,-209.53 -1.19,-87.42 59.18,-210.21 94.09,-296.89 257.84,-640.22 -30.75,-507.86 1342.78,-506.61 524.93,1193.51 160.7,843.64 96.08,1031l919.53 -0.17c-63.37,-192.7 -174.31,201.95 -517.65,-611.32l-1017.1 -2408.58 -186.03 417.39c-61.02,144.94 -108.72,261.86 -167.33,396.88 -123.02,283.4 -749.71,1861.87 -864.6,1993.41 -37.83,43.3 -92.93,93.73 -157.54,124.66 -47.4,22.69 -64.96,21.15 -100.57,38.44 -81.67,39.66 -38.53,-21.49 -63.99,50.42l819.92 -19.1z"/>
  <path class="fil5 str2" d="M7480.56 14924.59c56.07,-69.96 57.25,-180.19 110.74,-244.38 112.45,-134.97 783.36,-86.11 981.36,-76.31 -0.79,530.11 -0.19,1060.27 -0.14,1590.39 0.03,270.9 2.81,542.93 1.55,813.6 -2.16,467.3 -251.75,301.04 -304.02,440.09l893.59 -18.97c-193.1,-131.07 -314.23,-17.3 -314.23,-388.06l0 -2442.67 715.73 0c403.25,0 235.52,238 376.47,314.16l-2.26 -503.6c-811.81,112.08 -1644.98,94.18 -2456.69,-7.97l-2.1 523.72z"/>
  <polygon class="fil4 str1" points="15311.45,16273.06 16338.62,16282.43 15856.51,14963.23 "/>
  <path class="fil5 str2" d="M11761.98 13513.18c46.77,87.87 137.39,53.97 270.51,52.08l5119.38 0.04c168.02,2.86 255.58,49.76 272.57,-79.76 -622.15,0 -5526.52,-49.43 -5662.46,27.64z"/>
  <path class="fil5 str2" d="M4025.43 13513.18c74.96,104.02 1190.45,50.97 1376.94,50.97l3987.58 0.56c131.59,1.62 259.49,37.15 306.69,-51.53 -76.85,-43.57 -5540.06,-62.53 -5671.21,0z"/>
  <polygon class="fil5 str2" points="10617.95,13053.8 10545.07,13112.09 10484.68,13176.64 10440.96,13239.11 10429.5,13260.71 10423.25,13286.48 10420.92,13319.01 10420.92,13368.98 10423.13,13378.48 10380.7,13445.24 10309.1,13539.82 10296.61,13558.56 10284.63,13564.28 10272.14,13561.16 10249.24,13550.23 10227.35,13543.98 10205.49,13539.82 10184.67,13541.9 10170.1,13553.35 10163.85,13562.73 10163.85,13579.38 10172.18,13590.84 10193,13611.66 10235.68,13649.13 10280.45,13688.7 10327.3,13724.1 10360.62,13751.17 10374.15,13762.62 10383.52,13767.83 10401.22,13770.95 10415.8,13768.87 10428.29,13762.62 10439.74,13752.21 10448.07,13736.59 10445.98,13719.94 10437.66,13701.19 10430.37,13684.54 10412.67,13660.59 10396.02,13640.81 10382.48,13624.15 10417.88,13573.13 10506.9,13439.85 10520.44,13437.78 10546.46,13431.52 10577.7,13416.95 10600.6,13400.29 10621.43,13380.51 10643.29,13351.36 10664.11,13324.29 10678.69,13304.51 10693.26,13278.48 10709.92,13250.37 10718.25,13226.43 10722.41,13204.56 10728.69,13230.07 10740.14,13248.8 10752.63,13264.42 10767.2,13280.04 10783.86,13296.7 10800.52,13310.23 10819.26,13325.85 10840.08,13336.26 10860.9,13341.46 10877.57,13343.55 10894.23,13353.96 10917.14,13379.99 10944.2,13417.47 10967.1,13450.78 10987.95,13483.05 11007.73,13513.25 11019.18,13529.91 11020.23,13543.44 11021.79,13552.81 11017.63,13565.31 11000.97,13579.36 10991.6,13593.41 10982.23,13605.9 10970.77,13623.61 10964.53,13637.14 10963.49,13654.83 10969.74,13669.41 10982.23,13678.78 10999.93,13685.03 11018.67,13680.87 11038.45,13672.54 11051.98,13665.25 11072.8,13654.83 11091.54,13639.22 11113.4,13624.64 11140.47,13602.78 11174.83,13578.84 11202.94,13553.85 11234.17,13523.66 11244.58,13505.96 11244.58,13486.18 11233.13,13471.6 11215.43,13463.27 11195.65,13463.27 11177.95,13469.52 11159.21,13478.89 11149.84,13485.14 11138.39,13492.42 11126.94,13494.51 11113.4,13490.34 11104.04,13483.05 11094.67,13467.44 11054.07,13409.14 11010.34,13345.63 10984.31,13314.4 10981.19,13285.25 10982.23,13242.57 10983.27,13213.41 10977.02,13184.26 10964.53,13158.23 10933.3,13111.39 10888.53,13062.45 10846.89,13018.73 10823.98,12994.79 10805.24,12977.08 10792.75,12969.8 10780.25,12965.63 10742.78,12983.33 10713.63,13005.19 10689.68,13026.02 10673.03,13042.67 10661.19,13053.35 10651.16,13064.54 "/>
 </g>
</svg>
